<?xml version="1.0" encoding="UTF-8"?>
<!DOCTYPE svg PUBLIC "-//W3C//DTD SVG 1.1//EN" "http://www.w3.org/Graphics/SVG/1.1/DTD/svg11.dtd">
<svg xmlns="http://www.w3.org/2000/svg" version="1.1" width="463px" height="229px" style="shape-rendering:geometricPrecision; text-rendering:geometricPrecision; image-rendering:optimizeQuality; fill-rule:evenodd; clip-rule:evenodd" xmlns:xlink="http://www.w3.org/1999/xlink">
<g><path style="opacity:1" fill="#262521" d="M 72.5,67.5 C 77.8097,70.1562 82.8097,73.3228 87.5,77C 88.448,77.4828 89.448,77.6495 90.5,77.5C 91.1667,84.1667 91.8333,84.1667 92.5,77.5C 94.8733,78.8389 97.2067,80.1722 99.5,81.5C 98.325,81.281 97.325,81.6143 96.5,82.5C 100.737,85.7479 105.404,88.0812 110.5,89.5C 110.336,92.1873 110.503,94.854 111,97.5C 111.278,96.5842 111.778,95.9175 112.5,95.5C 112.075,99.9832 113.741,103.317 117.5,105.5C 116.526,106.635 115.359,107.635 114,108.5C 111.435,106.821 108.602,106.154 105.5,106.5C 103.657,105.717 101.657,105.05 99.5,104.5C 97.9246,105.456 96.258,106.123 94.5,106.5C 91.8646,105.189 89.5313,103.522 87.5,101.5C 95.821,104.002 100.154,101.002 100.5,92.5C 101.496,92.4142 102.329,92.7476 103,93.5C 103.101,96.6996 103.768,99.6996 105,102.5C 105.499,98.8484 105.665,95.1817 105.5,91.5C 106.317,93.9686 106.817,96.6353 107,99.5C 107.821,96.4459 107.655,93.4459 106.5,90.5C 102.5,88.1667 98.5,85.8333 94.5,83.5C 92.6641,84.919 90.6641,86.0857 88.5,87C 88.7284,87.3988 89.0618,87.5654 89.5,87.5C 88.2347,88.4793 86.9014,89.4793 85.5,90.5C 85.0799,93.6163 84.0799,96.2829 82.5,98.5C 82.3347,94.8183 82.5014,91.1516 83,87.5C 84.1158,84.4388 84.9492,81.2721 85.5,78C 81.3037,75.7394 77.3037,73.2394 73.5,70.5C 69.4373,72.3034 65.4373,74.3034 61.5,76.5C 60.6786,79.4465 60.1786,82.4465 60,85.5C 59.6847,83.4144 59.1847,81.4144 58.5,79.5C 59.4345,78.4324 59.7678,77.099 59.5,75.5C 63.5973,72.6098 67.9307,69.9431 72.5,67.5 Z"/></g>
<g><path style="opacity:0.988" fill="#8e8d8c" d="M 70.5,66.5 C 71.4916,66.3284 72.1583,66.6618 72.5,67.5C 67.9307,69.9431 63.5973,72.6098 59.5,75.5C 57.9705,76.0668 56.4705,76.7334 55,77.5C 54.8171,80.3647 54.3171,83.0314 53.5,85.5C 51.6921,84.0821 51.0254,82.0821 51.5,79.5C 51.281,78.325 51.6143,77.325 52.5,76.5C 58.5272,73.1545 64.5272,69.8212 70.5,66.5 Z"/></g>
<g><path style="opacity:0.737" fill="#545352" d="M 70.5,66.5 C 71.6009,65.4017 72.9343,65.235 74.5,66C 81.0734,69.1092 87.0734,72.9425 92.5,77.5C 91.8333,84.1667 91.1667,84.1667 90.5,77.5C 89.448,77.6495 88.448,77.4828 87.5,77C 82.8097,73.3228 77.8097,70.1562 72.5,67.5C 72.1583,66.6618 71.4916,66.3284 70.5,66.5 Z"/></g>
<g><path style="opacity:1" fill="#b7b6b3" d="M 73.5,70.5 C 72.8333,71.5 72.1667,72.5 71.5,73.5C 68.8252,75.1698 66.1586,76.8365 63.5,78.5C 62.8334,85.3447 62.1667,92.3447 61.5,99.5C 60.8329,95.6875 60.1663,92.0208 59.5,88.5C 57.3732,85.6272 57.0399,82.6272 58.5,79.5C 59.1847,81.4144 59.6847,83.4144 60,85.5C 60.1786,82.4465 60.6786,79.4465 61.5,76.5C 65.4373,74.3034 69.4373,72.3034 73.5,70.5 Z"/></g>
<g><path style="opacity:1" fill="#252523" d="M 48.5,80.5 C 49.209,79.596 50.209,79.2627 51.5,79.5C 51.0254,82.0821 51.6921,84.0821 53.5,85.5C 52.9094,86.1515 52.2427,86.8182 51.5,87.5C 52.9492,88.1719 54.2825,88.8386 55.5,89.5C 52.1849,90.3288 48.8516,91.1621 45.5,92C 44.0594,95.466 43.0594,98.966 42.5,102.5C 42.1667,102.5 41.8333,102.5 41.5,102.5C 41.2367,98.3998 41.5701,94.3998 42.5,90.5C 53.3063,84.6489 52.973,83.6489 41.5,87.5C 41.5,87.1667 41.5,86.8333 41.5,86.5C 43.7686,85.0242 46.1019,83.5242 48.5,82C 49.7383,81.31 49.7383,80.81 48.5,80.5 Z"/></g>
<g><path style="opacity:1" fill="#0b0a0a" d="M 59.5,75.5 C 59.7678,77.099 59.4345,78.4324 58.5,79.5C 57.0399,82.6272 57.3732,85.6272 59.5,88.5C 58.791,89.404 57.791,89.7373 56.5,89.5C 56.1667,89.5 55.8333,89.5 55.5,89.5C 54.2825,88.8386 52.9492,88.1719 51.5,87.5C 52.2427,86.8182 52.9094,86.1515 53.5,85.5C 54.3171,83.0314 54.8171,80.3647 55,77.5C 56.4705,76.7334 57.9705,76.0668 59.5,75.5 Z"/></g>
<g><path style="opacity:1" fill="#7a7977" d="M 73.5,70.5 C 77.3037,73.2394 81.3037,75.7394 85.5,78C 84.9492,81.2721 84.1158,84.4388 83,87.5C 82.5014,91.1516 82.3347,94.8183 82.5,98.5C 82.1667,98.5 81.8333,98.5 81.5,98.5C 81.5,95.1667 81.5,91.8333 81.5,88.5C 82.4922,85.2214 82.6588,81.8881 82,78.5C 78.8006,76.117 75.3006,74.4503 71.5,73.5C 72.1667,72.5 72.8333,71.5 73.5,70.5 Z"/></g>
<g><path style="opacity:1" fill="#ababa9" d="M 42.5,90.5 C 41.596,89.791 41.2627,88.791 41.5,87.5C 52.973,83.6489 53.3063,84.6489 42.5,90.5 Z"/></g>
<g><path style="opacity:0.892" fill="#575653" d="M 99.5,81.5 C 103.996,83.7294 108.496,86.0627 113,88.5C 113.556,90.8848 113.39,93.2181 112.5,95.5C 111.778,95.9175 111.278,96.5842 111,97.5C 110.503,94.854 110.336,92.1873 110.5,89.5C 105.404,88.0812 100.737,85.7479 96.5,82.5C 97.325,81.6143 98.325,81.281 99.5,81.5 Z"/></g>
<g><path style="opacity:1" fill="#161615" d="M 71.5,73.5 C 75.3006,74.4503 78.8006,76.117 82,78.5C 82.6588,81.8881 82.4922,85.2214 81.5,88.5C 80.6787,91.6414 80.1787,94.9748 80,98.5C 77.5052,99.7624 77.1718,99.4291 79,97.5C 79.4955,95.5273 79.6621,93.5273 79.5,91.5C 67.7158,94.6439 62.3825,90.3105 63.5,78.5C 66.1586,76.8365 68.8252,75.1698 71.5,73.5 Z"/></g>
<g><path style="opacity:1" fill="#6c6c6a" d="M 73.5,77.5 C 78.6968,77.8574 81.1968,80.524 81,85.5C 76.5943,89.6169 71.7609,90.2835 66.5,87.5C 65.5344,85.604 65.2011,83.604 65.5,81.5C 68.9213,81.4824 71.5879,80.149 73.5,77.5 Z"/></g>
<g><path style="opacity:1" fill="#5e5e5b" d="M 39.5,87.5 C 39.8417,86.6618 40.5084,86.3284 41.5,86.5C 41.5,86.8333 41.5,87.1667 41.5,87.5C 41.2627,88.791 41.596,89.791 42.5,90.5C 41.5701,94.3998 41.2367,98.3998 41.5,102.5C 40.6773,99.023 40.1773,95.3563 40,91.5C 39.5034,93.8098 39.3367,96.1432 39.5,98.5C 38.5442,94.6462 38.5442,90.9796 39.5,87.5 Z"/></g>
<g><path style="opacity:1" fill="#64615d" d="M 105.5,91.5 C 102.553,90.0266 99.5531,88.5266 96.5,87C 94.1152,86.4436 91.7819,86.6103 89.5,87.5C 89.0618,87.5654 88.7284,87.3988 88.5,87C 90.6641,86.0857 92.6641,84.919 94.5,83.5C 98.5,85.8333 102.5,88.1667 106.5,90.5C 107.655,93.4459 107.821,96.4459 107,99.5C 106.817,96.6353 106.317,93.9686 105.5,91.5 Z"/></g>
<g><path style="opacity:1" fill="#4e4d4c" d="M 34.5,90.5 C 33.8359,92.9779 33.5025,95.6445 33.5,98.5C 33.6036,101.769 34.2703,104.769 35.5,107.5C 33.5366,108.684 31.5366,109.517 29.5,110C 30.3333,109.167 31.1667,108.333 32,107.5C 32.1697,101.472 32.6697,95.4725 33.5,89.5C 34.1067,89.6236 34.44,89.9569 34.5,90.5 Z"/></g>
<g><path style="opacity:1" fill="#353533" d="M 63.5,78.5 C 62.3825,90.3105 67.7158,94.6439 79.5,91.5C 79.6621,93.5273 79.4955,95.5273 79,97.5C 77.1718,99.4291 77.5052,99.7624 80,98.5C 80.1787,94.9748 80.6787,91.6414 81.5,88.5C 81.5,91.8333 81.5,95.1667 81.5,98.5C 81.1961,99.1499 80.8627,99.8165 80.5,100.5C 74.7589,101.391 72.4256,104.724 73.5,110.5C 72.8333,109.833 72.1667,109.167 71.5,108.5C 71.2606,106.533 71.5939,104.699 72.5,103C 70.208,101.71 68.208,100.043 66.5,98C 65.5,97.3333 64.5,97.3333 63.5,98C 65.3884,100.19 67.5551,102.023 70,103.5C 70.5908,104.483 70.2575,105.15 69,105.5C 65.9074,103.545 62.7408,101.879 59.5,100.5C 60.1925,96.2473 59.1925,92.5807 56.5,89.5C 57.791,89.7373 58.791,89.404 59.5,88.5C 60.1663,92.0208 60.8329,95.6875 61.5,99.5C 62.1667,92.3447 62.8334,85.3447 63.5,78.5 Z"/></g>
<g><path style="opacity:1" fill="#131210" d="M 105.5,91.5 C 105.665,95.1817 105.499,98.8484 105,102.5C 103.768,99.6996 103.101,96.6996 103,93.5C 102.329,92.7476 101.496,92.4142 100.5,92.5C 96.4543,88.9954 92.121,88.6621 87.5,91.5C 86.0314,93.192 85.3647,95.192 85.5,97.5C 85.5854,99.3328 86.2521,100.666 87.5,101.5C 89.5313,103.522 91.8646,105.189 94.5,106.5C 94.0831,107.124 93.4164,107.457 92.5,107.5C 90.484,106.822 88.484,106.156 86.5,105.5C 83.1968,106.439 79.8635,107.439 76.5,108.5C 76.3359,111.187 76.5026,113.854 77,116.5C 77.3826,117.056 77.8826,117.389 78.5,117.5C 78.6107,118.117 78.944,118.617 79.5,119C 83.3773,119.729 87.2106,119.562 91,118.5C 92.7215,118.611 92.8882,119.111 91.5,120C 89.4117,121.03 87.245,121.863 85,122.5C 83.3333,121.167 81.6667,121.167 80,122.5C 77.9149,121.876 76.0816,120.876 74.5,119.5C 74.5,118.833 74.1667,118.5 73.5,118.5C 73.5,115.833 73.5,113.167 73.5,110.5C 72.4256,104.724 74.7589,101.391 80.5,100.5C 80.8627,99.8165 81.1961,99.1499 81.5,98.5C 81.8333,98.5 82.1667,98.5 82.5,98.5C 84.0799,96.2829 85.0799,93.6163 85.5,90.5C 86.9014,89.4793 88.2347,88.4793 89.5,87.5C 91.7819,86.6103 94.1152,86.4436 96.5,87C 99.5531,88.5266 102.553,90.0266 105.5,91.5 Z"/></g>
<g><path style="opacity:0.273" fill="#3e3e3e" d="M 31.5,88.5 C 31.8229,94.69 31.4896,100.69 30.5,106.5C 30.2588,101.505 29.9254,96.5053 29.5,91.5C 29.9424,90.2613 30.6091,89.2613 31.5,88.5 Z"/></g>
<g><path style="opacity:1" fill="#3e3e3b" d="M 100.5,92.5 C 100.154,101.002 95.821,104.002 87.5,101.5C 86.2521,100.666 85.5854,99.3328 85.5,97.5C 85.3647,95.192 86.0314,93.192 87.5,91.5C 92.121,88.6621 96.4543,88.9954 100.5,92.5 Z"/></g>
<g><path style="opacity:1" fill="#b2b1ad" d="M 41.5,102.5 C 41.8333,102.5 42.1667,102.5 42.5,102.5C 44.751,103.411 46.751,104.744 48.5,106.5C 47.8333,106.5 47.1667,106.5 46.5,106.5C 44.2986,105.434 41.9653,104.767 39.5,104.5C 39.5,102.5 39.5,100.5 39.5,98.5C 39.3367,96.1432 39.5034,93.8098 40,91.5C 40.1773,95.3563 40.6773,99.023 41.5,102.5 Z"/></g>
<g><path style="opacity:1" fill="#5c5b58" d="M 55.5,89.5 C 55.8333,89.5 56.1667,89.5 56.5,89.5C 59.1925,92.5807 60.1925,96.2473 59.5,100.5C 55.4555,101.766 51.7888,103.766 48.5,106.5C 46.751,104.744 44.751,103.411 42.5,102.5C 43.0594,98.966 44.0594,95.466 45.5,92C 48.8516,91.1621 52.1849,90.3288 55.5,89.5 Z"/></g>
<g><path style="opacity:1" fill="#7c7b79" d="M 51.5,91.5 C 53.3464,91.2222 54.6798,91.8888 55.5,93.5C 54.3111,99.5876 50.6444,102.588 44.5,102.5C 43.3038,96.3954 45.6371,92.7287 51.5,91.5 Z"/></g>
<g><path style="opacity:1" fill="#0e0c08" d="M 71.5,108.5 C 71.5,111.5 71.5,114.5 71.5,117.5C 68.1023,120.114 64.2689,121.781 60,122.5C 55.7047,121.766 51.8714,120.099 48.5,117.5C 48.5,113.833 48.5,110.167 48.5,106.5C 51.7888,103.766 55.4555,101.766 59.5,100.5C 62.7408,101.879 65.9074,103.545 69,105.5C 70.2575,105.15 70.5908,104.483 70,103.5C 67.5551,102.023 65.3884,100.19 63.5,98C 64.5,97.3333 65.5,97.3333 66.5,98C 68.208,100.043 70.208,101.71 72.5,103C 71.5939,104.699 71.2606,106.533 71.5,108.5 Z"/></g>
<g><path style="opacity:0.704" fill="#9e9e9e" d="M 188.5,110.5 C 188.5,109.167 188.5,107.833 188.5,106.5C 185.167,106.5 181.833,106.5 178.5,106.5C 178.5,107.833 178.5,109.167 178.5,110.5C 177.549,109.081 177.216,107.415 177.5,105.5C 181.5,105.5 185.5,105.5 189.5,105.5C 189.784,107.415 189.451,109.081 188.5,110.5 Z"/></g>
<g><path style="opacity:0.706" fill="#9d9d9d" d="M 259.5,110.5 C 259.5,109.167 259.5,107.833 259.5,106.5C 256.167,106.5 252.833,106.5 249.5,106.5C 249.5,107.833 249.5,109.167 249.5,110.5C 248.549,109.081 248.216,107.415 248.5,105.5C 252.5,105.5 256.5,105.5 260.5,105.5C 260.784,107.415 260.451,109.081 259.5,110.5 Z"/></g>
<g><path style="opacity:0.707" fill="#9d9d9d" d="M 282.5,110.5 C 282.5,109.167 282.5,107.833 282.5,106.5C 279.167,106.5 275.833,106.5 272.5,106.5C 272.5,107.833 272.5,109.167 272.5,110.5C 271.549,109.081 271.216,107.415 271.5,105.5C 275.5,105.5 279.5,105.5 283.5,105.5C 283.784,107.415 283.451,109.081 282.5,110.5 Z"/></g>
<g><path style="opacity:0.702" fill="#979797" d="M 314.5,110.5 C 314.5,109.167 314.5,107.833 314.5,106.5C 311.167,106.5 307.833,106.5 304.5,106.5C 304.5,107.833 304.5,109.167 304.5,110.5C 303.549,109.081 303.216,107.415 303.5,105.5C 307.5,105.5 311.5,105.5 315.5,105.5C 315.33,106.822 315.663,107.989 316.5,109C 315.956,109.717 315.289,110.217 314.5,110.5 Z"/></g>
<g><path style="opacity:0.718" fill="#9d9d9d" d="M 390.5,110.5 C 390.5,109.167 390.5,107.833 390.5,106.5C 387.167,106.5 383.833,106.5 380.5,106.5C 380.5,107.833 380.5,109.167 380.5,110.5C 379.549,109.081 379.216,107.415 379.5,105.5C 383.5,105.5 387.5,105.5 391.5,105.5C 391.784,107.415 391.451,109.081 390.5,110.5 Z"/></g>
<g><path style="opacity:0.708" fill="#a0a0a0" d="M 422.5,114.5 C 422.5,111.833 422.5,109.167 422.5,106.5C 416.167,106.5 409.833,106.5 403.5,106.5C 403.365,108.554 404.032,110.221 405.5,111.5C 404.5,111.5 403.5,111.5 402.5,111.5C 402.5,109.5 402.5,107.5 402.5,105.5C 409.5,105.5 416.5,105.5 423.5,105.5C 423.81,108.713 423.477,111.713 422.5,114.5 Z"/></g>
<g><path style="opacity:1" fill="#211e19" d="M 39.5,87.5 C 38.5442,90.9796 38.5442,94.6462 39.5,98.5C 39.5,100.5 39.5,102.5 39.5,104.5C 41.9653,104.767 44.2986,105.434 46.5,106.5C 46.6107,107.117 46.944,107.617 47.5,108C 46.7362,110.069 46.2362,112.236 46,114.5C 43.079,112.623 40.2456,110.623 37.5,108.5C 36.9041,109.716 36.7374,111.049 37,112.5C 34.9656,114.032 32.7989,115.365 30.5,116.5C 29.513,119.768 29.1796,123.102 29.5,126.5C 29.5,127.167 29.1667,127.5 28.5,127.5C 26.7202,126.01 26.0535,124.01 26.5,121.5C 26.3379,119.473 26.5045,117.473 27,115.5C 30.3329,113.333 33.1663,110.666 35.5,107.5C 34.2703,104.769 33.6036,101.769 33.5,98.5C 33.5025,95.6445 33.8359,92.9779 34.5,90.5C 34.2308,92.4286 34.7308,94.0953 36,95.5C 36.1858,93.0995 36.6858,90.7662 37.5,88.5C 38.1835,88.1373 38.8501,87.8039 39.5,87.5 Z"/></g>
<g><path style="opacity:0.999" fill="#eaeaea" d="M 165.5,124.5 C 166.72,126.282 167.386,128.282 167.5,130.5C 164.5,130.5 161.5,130.5 158.5,130.5C 158.449,128.43 159.115,126.597 160.5,125C 160.43,124.235 160.097,123.735 159.5,123.5C 158.833,122.167 158.167,122.167 157.5,123.5C 155.883,122.962 154.216,122.629 152.5,122.5C 151.115,123.947 151.448,124.947 153.5,125.5C 154.451,126.919 154.784,128.585 154.5,130.5C 151.167,130.5 147.833,130.5 144.5,130.5C 144.614,128.282 145.28,126.282 146.5,124.5C 148.023,118.428 149.857,112.428 152,106.5C 154.667,105.167 157.333,105.167 160,106.5C 162.143,112.428 163.977,118.428 165.5,124.5 Z M 157.5,116.5 C 156.749,117.573 155.749,117.74 154.5,117C 155.352,115.272 156.352,115.105 157.5,116.5 Z M 157.5,123.5 C 158.167,122.167 158.833,122.167 159.5,123.5C 159.062,124.506 158.396,124.506 157.5,123.5 Z"/></g>
<g><path style="opacity:0.999" fill="#e1e1e1" d="M 178.5,110.5 C 178.5,109.167 178.5,107.833 178.5,106.5C 181.833,106.5 185.167,106.5 188.5,106.5C 188.5,107.833 188.5,109.167 188.5,110.5C 187.897,112.626 187.897,114.959 188.5,117.5C 189.011,119.195 189.678,120.861 190.5,122.5C 191.107,122.376 191.44,122.043 191.5,121.5C 191.792,117.793 192.792,114.293 194.5,111C 193.552,110.517 192.552,110.351 191.5,110.5C 191.5,108.833 191.5,107.167 191.5,105.5C 195.5,105.5 199.5,105.5 203.5,105.5C 203.5,107.167 203.5,108.833 203.5,110.5C 202.5,110.5 201.5,110.5 200.5,110.5C 198.977,116.572 197.143,122.572 195,128.5C 192.478,130.662 189.645,130.995 186.5,129.5C 184.366,123.932 182.533,118.265 181,112.5C 180.583,111.244 179.75,110.577 178.5,110.5 Z"/></g>
<g><path style="opacity:0.999" fill="#e5e5e5" d="M 227.5,126.5 C 228.806,125.533 229.473,124.199 229.5,122.5C 227.5,122.5 225.5,122.5 223.5,122.5C 222.167,122.5 221.5,123.167 221.5,124.5C 220.957,124.56 220.624,124.893 220.5,125.5C 222.005,126.842 222.672,128.508 222.5,130.5C 219.167,130.5 215.833,130.5 212.5,130.5C 215.844,122.821 218.844,114.821 221.5,106.5C 224.086,105.52 226.753,105.187 229.5,105.5C 231.79,114.032 234.456,122.366 237.5,130.5C 234.167,130.5 230.833,130.5 227.5,130.5C 227.5,129.167 227.5,127.833 227.5,126.5 Z M 226.5,116.5 C 225.5,117.833 224.5,117.833 223.5,116.5C 224.29,115.391 224.79,114.058 225,112.5C 225.41,113.901 225.91,115.234 226.5,116.5 Z M 223.5,122.5 C 223.5,122.833 223.5,123.167 223.5,123.5C 222.833,123.833 222.167,124.167 221.5,124.5C 221.5,123.167 222.167,122.5 223.5,122.5 Z"/></g>
<g><path style="opacity:1" fill="#fafafa" d="M 259.5,110.5 C 258.833,110.5 258.167,110.5 257.5,110.5C 256.512,115.64 256.179,120.974 256.5,126.5C 257.5,126.5 258.5,126.5 259.5,126.5C 259.5,127.833 259.5,129.167 259.5,130.5C 256.167,130.5 252.833,130.5 249.5,130.5C 249.365,128.446 250.032,126.779 251.5,125.5C 252.108,120.056 251.442,115.056 249.5,110.5C 249.5,109.167 249.5,107.833 249.5,106.5C 252.833,106.5 256.167,106.5 259.5,106.5C 259.5,107.833 259.5,109.167 259.5,110.5 Z"/></g>
<g><path style="opacity:1" fill="#f3f3f3" d="M 282.5,110.5 C 281.761,110.369 281.094,110.536 280.5,111C 280.746,114.349 280.746,117.849 280.5,121.5C 280.5,123.167 280.5,124.833 280.5,126.5C 283.082,126.975 285.082,126.308 286.5,124.5C 286.5,123.5 286.5,122.5 286.5,121.5C 288.167,121.5 289.833,121.5 291.5,121.5C 291.5,124.5 291.5,127.5 291.5,130.5C 285.167,130.5 278.833,130.5 272.5,130.5C 272.614,128.282 273.28,126.282 274.5,124.5C 275.103,119.381 274.436,114.715 272.5,110.5C 272.5,109.167 272.5,107.833 272.5,106.5C 275.833,106.5 279.167,106.5 282.5,106.5C 282.5,107.833 282.5,109.167 282.5,110.5 Z"/></g>
<g><path style="opacity:1" fill="#f0f0f0" d="M 320.5,126.5 C 321.5,126.5 322.5,126.5 323.5,126.5C 323.5,124.167 323.5,121.833 323.5,119.5C 319.5,119.5 315.5,119.5 311.5,119.5C 311.205,121.735 311.539,123.735 312.5,125.5C 313.968,126.779 314.635,128.446 314.5,130.5C 311.167,130.5 307.833,130.5 304.5,130.5C 304.614,128.282 305.28,126.282 306.5,124.5C 307.103,119.381 306.436,114.715 304.5,110.5C 304.5,109.167 304.5,107.833 304.5,106.5C 307.833,106.5 311.167,106.5 314.5,106.5C 314.5,107.833 314.5,109.167 314.5,110.5C 313.833,110.5 313.167,110.5 312.5,110.5C 311.549,111.919 311.216,113.585 311.5,115.5C 315.5,115.5 319.5,115.5 323.5,115.5C 323.784,113.585 323.451,111.919 322.5,110.5C 320.744,109.448 320.077,107.781 320.5,105.5C 324.167,105.5 327.833,105.5 331.5,105.5C 330.619,109.6 329.952,113.767 329.5,118C 329.952,122.233 330.619,126.4 331.5,130.5C 327.818,130.665 324.152,130.499 320.5,130C 319.829,129.014 319.829,127.847 320.5,126.5 Z"/></g>
<g><path style="opacity:0.999" fill="#e7e7e7" d="M 353.5,110.5 C 352.512,115.64 352.179,120.974 352.5,126.5C 353.5,126.5 354.5,126.5 355.5,126.5C 355.5,127.833 355.5,129.167 355.5,130.5C 351.833,130.5 348.167,130.5 344.5,130.5C 345.381,126.4 346.048,122.233 346.5,118C 346.048,113.767 345.381,109.6 344.5,105.5C 348.167,105.5 351.833,105.5 355.5,105.5C 355.923,107.781 355.256,109.448 353.5,110.5 Z"/></g>
<g><path style="opacity:1" fill="#e4e4e4" d="M 375.5,112.5 C 375.769,116.474 376.936,120.14 379,123.5C 379.608,121.846 380.108,120.179 380.5,118.5C 380.779,115.882 381.446,113.382 382.5,111C 381.906,110.536 381.239,110.369 380.5,110.5C 380.5,109.167 380.5,107.833 380.5,106.5C 383.833,106.5 387.167,106.5 390.5,106.5C 390.5,107.833 390.5,109.167 390.5,110.5C 389.503,110.47 388.836,110.97 388.5,112C 386.589,117.81 384.756,123.643 383,129.5C 379.725,131.091 376.725,130.758 374,128.5C 371.77,120.646 369.27,112.979 366.5,105.5C 370.226,105.177 373.893,105.511 377.5,106.5C 378.246,107.736 378.579,109.07 378.5,110.5C 376.821,110.285 375.821,110.952 375.5,112.5 Z"/></g>
<g><path style="opacity:1" fill="#eeeeee" d="M 422.5,114.5 C 420.833,114.5 419.167,114.5 417.5,114.5C 417.5,113.167 417.5,111.833 417.5,110.5C 415.167,110.5 412.833,110.5 410.5,110.5C 410.077,112.781 410.744,114.448 412.5,115.5C 413.167,115.5 413.833,115.5 414.5,115.5C 415.833,115.5 416.5,116.167 416.5,117.5C 416.5,117.833 416.5,118.167 416.5,118.5C 416.179,120.048 415.179,120.715 413.5,120.5C 412.761,120.369 412.094,120.536 411.5,121C 412.38,122.356 412.714,123.856 412.5,125.5C 413.833,125.5 415.167,125.5 416.5,125.5C 417.434,124.432 417.768,123.099 417.5,121.5C 419.5,121.5 421.5,121.5 423.5,121.5C 423.5,124.5 423.5,127.5 423.5,130.5C 416.833,130.5 410.167,130.5 403.5,130.5C 403.884,128.071 404.551,125.737 405.5,123.5C 405.5,119.5 405.5,115.5 405.5,111.5C 404.032,110.221 403.365,108.554 403.5,106.5C 409.833,106.5 416.167,106.5 422.5,106.5C 422.5,109.167 422.5,111.833 422.5,114.5 Z"/></g>
<g><path style="opacity:1" fill="#3c3b35" d="M 62.5,105.5 C 59.634,106.759 56.634,107.759 53.5,108.5C 53.5,111.167 53.5,113.833 53.5,116.5C 52.2353,115.486 51.5687,113.986 51.5,112C 51.6667,110.5 51.8333,109 52,107.5C 54.7581,106.205 57.2581,104.539 59.5,102.5C 60.8549,103.188 61.8549,104.188 62.5,105.5 Z"/></g>
<g><path style="opacity:0.925" fill="#a19f9c" d="M 48.5,80.5 C 49.7383,80.81 49.7383,81.31 48.5,82C 46.1019,83.5242 43.7686,85.0242 41.5,86.5C 40.5084,86.3284 39.8417,86.6618 39.5,87.5C 38.8501,87.8039 38.1835,88.1373 37.5,88.5C 36.6858,90.7662 36.1858,93.0995 36,95.5C 34.7308,94.0953 34.2308,92.4286 34.5,90.5C 34.44,89.9569 34.1067,89.6236 33.5,89.5C 32.6697,95.4725 32.1697,101.472 32,107.5C 31.1667,108.333 30.3333,109.167 29.5,110C 31.5366,109.517 33.5366,108.684 35.5,107.5C 33.1663,110.666 30.3329,113.333 27,115.5C 26.5045,117.473 26.3379,119.473 26.5,121.5C 25.8333,121.833 25.1667,122.167 24.5,122.5C 24.5,119.833 24.5,117.167 24.5,114.5C 25.6115,111.162 27.6115,108.495 30.5,106.5C 31.4896,100.69 31.8229,94.69 31.5,88.5C 36.9768,85.5968 42.6435,82.9302 48.5,80.5 Z"/></g>
<g><path style="opacity:1" fill="#868276" d="M 62.5,105.5 C 62.8333,105.5 63.1667,105.5 63.5,105.5C 63.9003,107.377 64.9003,108.877 66.5,110C 64.0918,113.073 61.0918,115.406 57.5,117C 58.7383,117.69 58.7383,118.19 57.5,118.5C 55.9382,118.267 54.6049,117.6 53.5,116.5C 53.5,113.833 53.5,111.167 53.5,108.5C 56.634,107.759 59.634,106.759 62.5,105.5 Z"/></g>
<g><path style="opacity:1" fill="#28221c" d="M 105.5,106.5 C 104.647,108.893 102.981,110.226 100.5,110.5C 100.5,111.5 100.5,112.5 100.5,113.5C 99.5,113.5 98.5,113.5 97.5,113.5C 96.7611,113.369 96.0944,113.536 95.5,114C 96.626,117.744 96.7927,121.577 96,125.5C 94.6703,126.582 93.1703,127.249 91.5,127.5C 89.54,128.138 87.7067,128.138 86,127.5C 85.5172,128.448 85.3505,129.448 85.5,130.5C 84.1667,130.5 82.8333,130.5 81.5,130.5C 81.9111,127.724 81.0777,127.057 79,128.5C 77.6998,127.293 76.1998,126.626 74.5,126.5C 74.5,124.167 74.5,121.833 74.5,119.5C 76.0816,120.876 77.9149,121.876 80,122.5C 81.6667,121.167 83.3333,121.167 85,122.5C 87.245,121.863 89.4117,121.03 91.5,120C 92.8882,119.111 92.7215,118.611 91,118.5C 87.2106,119.562 83.3773,119.729 79.5,119C 78.944,118.617 78.6107,118.117 78.5,117.5C 81.5217,117.572 83.6884,116.238 85,113.5C 85.567,110.832 86.067,108.166 86.5,105.5C 88.484,106.156 90.484,106.822 92.5,107.5C 93.4164,107.457 94.0831,107.124 94.5,106.5C 96.258,106.123 97.9246,105.456 99.5,104.5C 101.657,105.05 103.657,105.717 105.5,106.5 Z"/></g>
<g><path style="opacity:1" fill="#744c18" d="M 116.5,115.5 C 114.606,114.952 112.94,113.952 111.5,112.5C 110.817,112.863 110.15,113.196 109.5,113.5C 103.018,115.373 100.685,119.706 102.5,126.5C 101.833,126.5 101.167,126.5 100.5,126.5C 100.448,124.097 100.781,121.764 101.5,119.5C 101.337,117.143 101.503,114.81 102,112.5C 104.421,111.039 106.921,109.706 109.5,108.5C 112.06,110.612 114.394,112.945 116.5,115.5 Z"/></g>
<g><path style="opacity:0.31" fill="#585858" d="M 417.5,114.5 C 417.737,115.791 417.404,116.791 416.5,117.5C 416.5,116.167 415.833,115.5 414.5,115.5C 415.141,114.518 415.807,113.518 416.5,112.5C 414.37,111.223 412.704,111.723 411.5,114C 412.056,114.383 412.389,114.883 412.5,115.5C 410.744,114.448 410.077,112.781 410.5,110.5C 412.833,110.5 415.167,110.5 417.5,110.5C 417.5,111.833 417.5,113.167 417.5,114.5 Z M 414.5,115.5 C 413.833,115.5 413.167,115.5 412.5,115.5C 412.389,114.883 412.056,114.383 411.5,114C 412.704,111.723 414.37,111.223 416.5,112.5C 415.807,113.518 415.141,114.518 414.5,115.5 Z"/></g>
<g><path style="opacity:1" fill="#897d65" d="M 46.5,106.5 C 47.1667,106.5 47.8333,106.5 48.5,106.5C 48.5,110.167 48.5,113.833 48.5,117.5C 47.8333,117.5 47.5,117.833 47.5,118.5C 44.1496,115.594 40.483,114.594 36.5,115.5C 35.063,116.725 33.3964,117.725 31.5,118.5C 30.52,121.086 30.1866,123.753 30.5,126.5C 30.1667,126.5 29.8333,126.5 29.5,126.5C 29.1796,123.102 29.513,119.768 30.5,116.5C 32.7989,115.365 34.9656,114.032 37,112.5C 36.7374,111.049 36.9041,109.716 37.5,108.5C 40.2456,110.623 43.079,112.623 46,114.5C 46.2362,112.236 46.7362,110.069 47.5,108C 46.944,107.617 46.6107,107.117 46.5,106.5 Z"/></g>
<g><path style="opacity:0.116" fill="#585858" d="M 312.5,110.5 C 313.171,111.847 313.171,113.014 312.5,114C 315.817,114.498 319.15,114.665 322.5,114.5C 322.5,113.167 322.5,111.833 322.5,110.5C 323.451,111.919 323.784,113.585 323.5,115.5C 319.5,115.5 315.5,115.5 311.5,115.5C 311.216,113.585 311.549,111.919 312.5,110.5 Z"/></g>
<g><path style="opacity:1" fill="#575048" d="M 63.5,105.5 C 67.3308,108.203 68.3308,111.869 66.5,116.5C 63.4825,118.347 60.4825,119.013 57.5,118.5C 58.7383,118.19 58.7383,117.69 57.5,117C 61.0918,115.406 64.0918,113.073 66.5,110C 64.9003,108.877 63.9003,107.377 63.5,105.5 Z"/></g>
<g><path style="opacity:1" fill="#4a4841" d="M 86.5,105.5 C 86.067,108.166 85.567,110.832 85,113.5C 83.6884,116.238 81.5217,117.572 78.5,117.5C 77.8826,117.389 77.3826,117.056 77,116.5C 76.5026,113.854 76.3359,111.187 76.5,108.5C 79.8635,107.439 83.1968,106.439 86.5,105.5 Z"/></g>
<g><path style="opacity:0.247" fill="#5a5a5a" d="M 155.5,112.5 C 156.806,113.467 157.473,114.801 157.5,116.5C 158.043,116.56 158.376,116.893 158.5,117.5C 156.955,118.452 155.288,118.785 153.5,118.5C 153.595,116.214 154.262,114.214 155.5,112.5 Z M 157.5,116.5 C 156.352,115.105 155.352,115.272 154.5,117C 155.749,117.74 156.749,117.573 157.5,116.5 Z"/></g>
<g><path style="opacity:0.02" fill="#404040" d="M 188.5,117.5 C 189.978,118.448 190.978,119.781 191.5,121.5C 191.44,122.043 191.107,122.376 190.5,122.5C 189.678,120.861 189.011,119.195 188.5,117.5 Z"/></g>
<g><path style="opacity:0.239" fill="#666666" d="M 223.5,116.5 C 224.5,117.833 225.5,117.833 226.5,116.5C 227.043,116.56 227.376,116.893 227.5,117.5C 225.833,118.833 224.167,118.833 222.5,117.5C 222.624,116.893 222.957,116.56 223.5,116.5 Z"/></g>
<g><path style="opacity:0.293" fill="#7b7b7b" d="M 320.5,126.5 C 322.075,124.886 322.741,122.886 322.5,120.5C 319.167,120.5 315.833,120.5 312.5,120.5C 312.5,122.167 312.5,123.833 312.5,125.5C 311.539,123.735 311.205,121.735 311.5,119.5C 315.5,119.5 319.5,119.5 323.5,119.5C 323.5,121.833 323.5,124.167 323.5,126.5C 322.5,126.5 321.5,126.5 320.5,126.5 Z"/></g>
<g><path style="opacity:1" fill="#f8eda6" d="M 36.5,115.5 C 41.5265,116.176 43.1932,118.843 41.5,123.5C 38.2073,124.809 34.874,126.142 31.5,127.5C 30.8333,127.5 30.5,127.167 30.5,126.5C 30.1866,123.753 30.52,121.086 31.5,118.5C 33.3964,117.725 35.063,116.725 36.5,115.5 Z"/></g>
<g><path style="opacity:1" fill="#dc9d1c" d="M 116.5,115.5 C 117.414,118.728 117.747,122.061 117.5,125.5C 114.91,125.396 112.577,126.063 110.5,127.5C 108.668,126.179 106.668,125.179 104.5,124.5C 104.818,120.199 106.485,116.532 109.5,113.5C 110.15,113.196 110.817,112.863 111.5,112.5C 112.94,113.952 114.606,114.952 116.5,115.5 Z"/></g>
<g><path style="opacity:0.593" fill="#969696" d="M 257.5,110.5 C 257.5,115.5 257.5,120.5 257.5,125.5C 258.5,125.5 259.5,125.5 260.5,125.5C 260.784,127.415 260.451,129.081 259.5,130.5C 259.5,129.167 259.5,127.833 259.5,126.5C 258.5,126.5 257.5,126.5 256.5,126.5C 256.179,120.974 256.512,115.64 257.5,110.5 Z"/></g>
<g><path style="opacity:0.094" fill="#565656" d="M 375.5,112.5 C 376.6,114.277 377.434,116.277 378,118.5C 378.77,119.598 379.603,119.598 380.5,118.5C 380.108,120.179 379.608,121.846 379,123.5C 376.936,120.14 375.769,116.474 375.5,112.5 Z"/></g>
<g><path style="opacity:0.027" fill="#202020" d="M 416.5,118.5 C 417.404,119.209 417.737,120.209 417.5,121.5C 417.768,123.099 417.434,124.432 416.5,125.5C 416.25,123.326 415.25,121.659 413.5,120.5C 415.179,120.715 416.179,120.048 416.5,118.5 Z"/></g>
<g><path style="opacity:0.351" fill="#7a7a7a" d="M 353.5,110.5 C 352.963,116.135 353.63,121.468 355.5,126.5C 354.5,126.5 353.5,126.5 352.5,126.5C 352.179,120.974 352.512,115.64 353.5,110.5 Z"/></g>
<g><path style="opacity:1" fill="#d8b76a" d="M 36.5,115.5 C 40.483,114.594 44.1496,115.594 47.5,118.5C 47.5,119.167 47.5,119.833 47.5,120.5C 47.7852,122.288 47.4519,123.955 46.5,125.5C 43.6959,127.138 41.0292,128.971 38.5,131C 35.65,131.009 33.3167,129.842 31.5,127.5C 34.874,126.142 38.2073,124.809 41.5,123.5C 43.1932,118.843 41.5265,116.176 36.5,115.5 Z"/></g>
<g><path style="opacity:0.004" fill="#202020" d="M 152.5,122.5 C 152.557,123.609 152.89,124.609 153.5,125.5C 151.448,124.947 151.115,123.947 152.5,122.5 Z"/></g>
<g><path style="opacity:0.024" fill="#2f2f2f" d="M 223.5,123.5 C 223.5,123.167 223.5,122.833 223.5,122.5C 225.5,122.5 227.5,122.5 229.5,122.5C 229.473,124.199 228.806,125.533 227.5,126.5C 226.308,125.434 226.641,124.601 228.5,124C 226.866,123.506 225.199,123.34 223.5,123.5 Z"/></g>
<g><path style="opacity:0.606" fill="#888888" d="M 286.5,121.5 C 288.265,120.539 290.265,120.205 292.5,120.5C 292.813,124.042 292.479,127.375 291.5,130.5C 291.5,127.5 291.5,124.5 291.5,121.5C 289.833,121.5 288.167,121.5 286.5,121.5 Z"/></g>
<g><path style="opacity:0.294" fill="#5f5236" d="M 24.5,114.5 C 24.5,117.167 24.5,119.833 24.5,122.5C 24.298,124.95 24.6314,127.283 25.5,129.5C 24.1914,127.429 23.5248,124.929 23.5,122C 23.5029,119.31 23.8362,116.81 24.5,114.5 Z"/></g>
<g><path style="opacity:1" fill="#b57119" d="M 109.5,113.5 C 106.485,116.532 104.818,120.199 104.5,124.5C 106.668,125.179 108.668,126.179 110.5,127.5C 112.577,126.063 114.91,125.396 117.5,125.5C 117.747,122.061 117.414,118.728 116.5,115.5C 117.787,116.871 118.453,118.705 118.5,121C 118.342,123.449 117.675,125.616 116.5,127.5C 114.243,127.962 112.243,128.962 110.5,130.5C 109.583,129.873 108.583,129.539 107.5,129.5C 105.566,128.89 103.899,127.89 102.5,126.5C 100.685,119.706 103.018,115.373 109.5,113.5 Z"/></g>
<g><path style="opacity:0.512" fill="#676767" d="M 280.5,121.5 C 281.434,122.568 281.768,123.901 281.5,125.5C 283.292,125.634 284.958,125.301 286.5,124.5C 285.082,126.308 283.082,126.975 280.5,126.5C 280.5,124.833 280.5,123.167 280.5,121.5 Z"/></g>
<g><path style="opacity:1" fill="#322c24" d="M 48.5,117.5 C 51.8714,120.099 55.7047,121.766 60,122.5C 64.2689,121.781 68.1023,120.114 71.5,117.5C 71.6646,120.518 71.498,123.518 71,126.5C 67.4202,129.055 63.5868,130.555 59.5,131C 56.0288,128.928 52.3621,127.428 48.5,126.5C 48.7947,124.265 48.4614,122.265 47.5,120.5C 47.5,119.833 47.5,119.167 47.5,118.5C 47.5,117.833 47.8333,117.5 48.5,117.5 Z"/></g>
<g><path style="opacity:0.359" fill="#797979" d="M 146.5,124.5 C 145.28,126.282 144.614,128.282 144.5,130.5C 143.007,127.887 143.674,125.887 146.5,124.5 Z"/></g>
<g><path style="opacity:0.173" fill="#5b5b5b" d="M 165.5,124.5 C 168.326,125.887 168.993,127.887 167.5,130.5C 167.386,128.282 166.72,126.282 165.5,124.5 Z"/></g>
<g><path style="opacity:0.357" fill="#5c5c5c" d="M 223.5,123.5 C 223.802,126.059 223.468,128.393 222.5,130.5C 222.672,128.508 222.005,126.842 220.5,125.5C 220.624,124.893 220.957,124.56 221.5,124.5C 222.167,124.167 222.833,123.833 223.5,123.5 Z"/></g>
<g><path style="opacity:0.443" fill="#878787" d="M 251.5,125.5 C 250.032,126.779 249.365,128.446 249.5,130.5C 248.549,129.081 248.216,127.415 248.5,125.5C 249.5,125.5 250.5,125.5 251.5,125.5 Z"/></g>
<g><path style="opacity:0.195" fill="#535353" d="M 274.5,124.5 C 273.28,126.282 272.614,128.282 272.5,130.5C 271.007,127.887 271.674,125.887 274.5,124.5 Z"/></g>
<g><path style="opacity:0.446" fill="#838383" d="M 306.5,124.5 C 305.28,126.282 304.614,128.282 304.5,130.5C 303.007,127.887 303.674,125.887 306.5,124.5 Z"/></g>
<g><path style="opacity:0.224" fill="#5c5c5c" d="M 312.5,125.5 C 313.5,125.5 314.5,125.5 315.5,125.5C 315.784,127.415 315.451,129.081 314.5,130.5C 314.635,128.446 313.968,126.779 312.5,125.5 Z"/></g>
<g><path style="opacity:0.443" fill="#797979" d="M 405.5,123.5 C 404.551,125.737 403.884,128.071 403.5,130.5C 402.19,127.745 402.856,125.412 405.5,123.5 Z"/></g>
<g><path style="opacity:1" fill="#67472a" d="M 97.5,113.5 C 97.1774,117.226 97.5108,120.893 98.5,124.5C 99.0652,122.456 100.065,120.79 101.5,119.5C 100.781,121.764 100.448,124.097 100.5,126.5C 102.812,128.636 105.312,130.636 108,132.5C 108.497,135.146 108.664,137.813 108.5,140.5C 107.5,140.5 106.5,140.5 105.5,140.5C 105.5,138.833 105.5,137.167 105.5,135.5C 105.649,134.448 105.483,133.448 105,132.5C 102.154,130.743 99.4878,128.743 97,126.5C 94.0568,128.052 91.2235,129.719 88.5,131.5C 87.7611,131.631 87.0944,131.464 86.5,131C 88.3464,129.97 90.0131,128.804 91.5,127.5C 93.1703,127.249 94.6703,126.582 96,125.5C 96.7927,121.577 96.626,117.744 95.5,114C 96.0944,113.536 96.7611,113.369 97.5,113.5 Z"/></g>
<g><path style="opacity:0.278" fill="#545454" d="M 157.5,123.5 C 158.396,124.506 159.062,124.506 159.5,123.5C 160.097,123.735 160.43,124.235 160.5,125C 159.115,126.597 158.449,128.43 158.5,130.5C 157.776,128.782 157.109,126.948 156.5,125C 157.056,124.617 157.389,124.117 157.5,123.5 Z"/></g>
<g><path style="opacity:1" fill="#664d30" d="M 71.5,108.5 C 72.1667,109.167 72.8333,109.833 73.5,110.5C 73.5,113.167 73.5,115.833 73.5,118.5C 73.3354,121.518 73.502,124.518 74,127.5C 76.8239,128.818 79.3239,130.485 81.5,132.5C 81.5,132.833 81.5,133.167 81.5,133.5C 78.1605,131.823 74.8272,130.156 71.5,128.5C 69.9623,128.453 68.9623,129.12 68.5,130.5C 67.205,131.488 65.8717,132.488 64.5,133.5C 63.0813,132.549 61.4147,132.216 59.5,132.5C 55.1345,131.615 51.4678,129.615 48.5,126.5C 52.3621,127.428 56.0288,128.928 59.5,131C 63.5868,130.555 67.4202,129.055 71,126.5C 71.498,123.518 71.6646,120.518 71.5,117.5C 71.5,114.5 71.5,111.5 71.5,108.5 Z"/></g>
<g><path style="opacity:0.796" fill="#725a40" d="M 123.5,113.5 C 124.816,119.013 124.816,124.68 123.5,130.5C 121.091,132.902 119.091,135.569 117.5,138.5C 116.438,136.901 116.438,135.234 117.5,133.5C 118.764,131.73 120.264,130.063 122,128.5C 122.174,123.316 122.674,118.316 123.5,113.5 Z"/></g>
<g><path style="opacity:1" fill="#927d58" d="M 26.5,121.5 C 26.0535,124.01 26.7202,126.01 28.5,127.5C 30.1513,128.97 31.9847,130.303 34,131.5C 34.6667,133.5 34.6667,135.5 34,137.5C 32.5871,133.252 29.7538,130.585 25.5,129.5C 24.6314,127.283 24.298,124.95 24.5,122.5C 25.1667,122.167 25.8333,121.833 26.5,121.5 Z"/></g>
<g><path style="opacity:1" fill="#a2875d" d="M 68.5,130.5 C 71.5997,134.198 70.5997,136.531 65.5,137.5C 64.7659,136.292 64.4326,134.959 64.5,133.5C 65.8717,132.488 67.205,131.488 68.5,130.5 Z"/></g>
<g><path style="opacity:1" fill="#af6c2e" d="M 81.5,132.5 C 82.5,132.5 83.5,132.5 84.5,132.5C 84.5,134.167 84.5,135.833 84.5,137.5C 83.391,137.557 82.391,137.89 81.5,138.5C 81.5,136.833 81.5,135.167 81.5,133.5C 81.5,133.167 81.5,132.833 81.5,132.5 Z"/></g>
<g><path style="opacity:1" fill="#312110" d="M 73.5,118.5 C 74.1667,118.5 74.5,118.833 74.5,119.5C 74.5,121.833 74.5,124.167 74.5,126.5C 76.1998,126.626 77.6998,127.293 79,128.5C 81.0777,127.057 81.9111,127.724 81.5,130.5C 82.8333,130.5 84.1667,130.5 85.5,130.5C 85.3505,129.448 85.5172,128.448 86,127.5C 87.7067,128.138 89.54,128.138 91.5,127.5C 90.0131,128.804 88.3464,129.97 86.5,131C 87.0944,131.464 87.7611,131.631 88.5,131.5C 87.791,132.404 86.791,132.737 85.5,132.5C 85.1712,138.206 85.5046,143.872 86.5,149.5C 87.4909,145.555 87.8242,141.555 87.5,137.5C 92.0862,136.356 96.4196,134.69 100.5,132.5C 102.184,133.527 103.851,134.527 105.5,135.5C 105.5,137.167 105.5,138.833 105.5,140.5C 106.5,140.5 107.5,140.5 108.5,140.5C 108.664,137.813 108.497,135.146 108,132.5C 105.312,130.636 102.812,128.636 100.5,126.5C 101.167,126.5 101.833,126.5 102.5,126.5C 103.899,127.89 105.566,128.89 107.5,129.5C 108.315,130.837 109.482,131.837 111,132.5C 111.499,136.486 111.666,140.486 111.5,144.5C 111.5,144.833 111.5,145.167 111.5,145.5C 110.71,144.391 110.21,143.058 110,141.5C 109.798,143.256 109.298,144.922 108.5,146.5C 102.947,149.102 97.9468,152.436 93.5,156.5C 90.0168,153.098 86.0168,150.765 81.5,149.5C 82.2216,149.082 82.7216,148.416 83,147.5C 83.3333,147.833 83.6667,148.167 84,148.5C 84.4986,144.848 84.6653,141.182 84.5,137.5C 84.5,135.833 84.5,134.167 84.5,132.5C 83.5,132.5 82.5,132.5 81.5,132.5C 79.3239,130.485 76.8239,128.818 74,127.5C 73.502,124.518 73.3354,121.518 73.5,118.5 Z"/></g>
<g><path style="opacity:1" fill="#191208" d="M 105.5,135.5 C 103.851,134.527 102.184,133.527 100.5,132.5C 96.4196,134.69 92.0862,136.356 87.5,137.5C 87.8242,141.555 87.4909,145.555 86.5,149.5C 85.5046,143.872 85.1712,138.206 85.5,132.5C 86.791,132.737 87.791,132.404 88.5,131.5C 91.2235,129.719 94.0568,128.052 97,126.5C 99.4878,128.743 102.154,130.743 105,132.5C 105.483,133.448 105.649,134.448 105.5,135.5 Z"/></g>
<g><path style="opacity:1" fill="#77461f" d="M 116.5,127.5 C 113.873,130.929 112.873,134.929 113.5,139.5C 112.833,141.167 112.167,142.833 111.5,144.5C 111.666,140.486 111.499,136.486 111,132.5C 109.482,131.837 108.315,130.837 107.5,129.5C 108.583,129.539 109.583,129.873 110.5,130.5C 112.243,128.962 114.243,127.962 116.5,127.5 Z"/></g>
<g><path style="opacity:1" fill="#372816" d="M 47.5,120.5 C 48.4614,122.265 48.7947,124.265 48.5,126.5C 51.4678,129.615 55.1345,131.615 59.5,132.5C 59.5,137.833 59.5,143.167 59.5,148.5C 56.2783,148.854 54.1116,150.521 53,153.5C 51.6667,152.833 50.6667,151.833 50,150.5C 48.7638,151.399 47.9304,152.566 47.5,154C 48.0446,157.187 48.7113,160.354 49.5,163.5C 50.4656,161.604 50.7989,159.604 50.5,157.5C 51.3138,159.631 51.8138,161.964 52,164.5C 53.5057,166.065 55.0057,166.399 56.5,165.5C 57.0984,162.275 58.4317,159.275 60.5,156.5C 62.7411,157.032 64.2411,158.365 65,160.5C 65.4186,159.328 66.0853,158.328 67,157.5C 68.6238,163.246 66.4571,166.579 60.5,167.5C 59.8281,168.949 59.1614,170.282 58.5,171.5C 54.2378,169.559 50.5711,166.893 47.5,163.5C 48.609,156.289 45.609,152.289 38.5,151.5C 38.5,149.167 38.5,146.833 38.5,144.5C 39.3091,146.292 39.8091,148.292 40,150.5C 39.8982,146.044 40.7316,142.044 42.5,138.5C 43.0093,142.116 44.3426,142.783 46.5,140.5C 47.2943,142.856 46.961,145.189 45.5,147.5C 48.3879,150.462 49.7213,149.795 49.5,145.5C 51.4835,145.617 53.1502,144.95 54.5,143.5C 55.8626,144.879 56.8626,144.713 57.5,143C 56.1439,141.433 55.4772,139.6 55.5,137.5C 54.448,137.649 53.448,137.483 52.5,137C 50.6022,135.583 48.9355,134.083 47.5,132.5C 48.087,131.233 48.087,130.233 47.5,129.5C 44.7692,131.192 42.1025,132.858 39.5,134.5C 39.1667,134.5 38.8333,134.5 38.5,134.5C 38.1788,132.952 37.1788,132.285 35.5,132.5C 34.4935,139.295 33.4935,145.962 32.5,152.5C 31.7784,152.082 31.2784,151.416 31,150.5C 30.6667,146.167 30.3333,141.833 30,137.5C 27.7138,135.26 26.2138,132.593 25.5,129.5C 29.7538,130.585 32.5871,133.252 34,137.5C 34.6667,135.5 34.6667,133.5 34,131.5C 31.9847,130.303 30.1513,128.97 28.5,127.5C 29.1667,127.5 29.5,127.167 29.5,126.5C 29.8333,126.5 30.1667,126.5 30.5,126.5C 30.5,127.167 30.8333,127.5 31.5,127.5C 33.3167,129.842 35.65,131.009 38.5,131C 41.0292,128.971 43.6959,127.138 46.5,125.5C 47.4519,123.955 47.7852,122.288 47.5,120.5 Z"/></g>
<g><path style="opacity:1" fill="#4d3b20" d="M 47.5,132.5 C 48.9355,134.083 50.6022,135.583 52.5,137C 53.448,137.483 54.448,137.649 55.5,137.5C 55.4772,139.6 56.1439,141.433 57.5,143C 56.8626,144.713 55.8626,144.879 54.5,143.5C 53.1502,144.95 51.4835,145.617 49.5,145.5C 49.7213,149.795 48.3879,150.462 45.5,147.5C 46.961,145.189 47.2943,142.856 46.5,140.5C 44.3426,142.783 43.0093,142.116 42.5,138.5C 42.5,138.167 42.5,137.833 42.5,137.5C 45.1999,136.8 46.8666,135.134 47.5,132.5 Z"/></g>
<g><path style="opacity:1" fill="#9f7a4a" d="M 38.5,134.5 C 38.8333,134.5 39.1667,134.5 39.5,134.5C 39.8564,136.19 40.8564,137.19 42.5,137.5C 42.5,137.833 42.5,138.167 42.5,138.5C 40.7316,142.044 39.8982,146.044 40,150.5C 39.8091,148.292 39.3091,146.292 38.5,144.5C 38.5,141.167 38.5,137.833 38.5,134.5 Z"/></g>
<g><path style="opacity:1" fill="#d6c48c" d="M 47.5,132.5 C 46.8666,135.134 45.1999,136.8 42.5,137.5C 40.8564,137.19 39.8564,136.19 39.5,134.5C 42.1025,132.858 44.7692,131.192 47.5,129.5C 48.087,130.233 48.087,131.233 47.5,132.5 Z"/></g>
<g><path style="opacity:1" fill="#71411d" d="M 84.5,137.5 C 84.6653,141.182 84.4986,144.848 84,148.5C 83.6667,148.167 83.3333,147.833 83,147.5C 82.7216,148.416 82.2216,149.082 81.5,149.5C 81.5,145.833 81.5,142.167 81.5,138.5C 82.391,137.89 83.391,137.557 84.5,137.5 Z"/></g>
<g><path style="opacity:1" fill="#211b14" d="M 38.5,134.5 C 38.5,137.833 38.5,141.167 38.5,144.5C 38.5,146.833 38.5,149.167 38.5,151.5C 45.609,152.289 48.609,156.289 47.5,163.5C 41.6522,160.985 36.6522,157.318 32.5,152.5C 33.4935,145.962 34.4935,139.295 35.5,132.5C 37.1788,132.285 38.1788,132.952 38.5,134.5 Z"/></g>
<g><path style="opacity:0.447" fill="#2a1b0c" d="M 117.5,105.5 C 119.878,107.878 121.878,110.545 123.5,113.5C 122.674,118.316 122.174,123.316 122,128.5C 120.264,130.063 118.764,131.73 117.5,133.5C 116.883,133.611 116.383,133.944 116,134.5C 115.667,140.5 115.333,146.5 115,152.5C 108.963,155.102 103.13,158.102 97.5,161.5C 97.1667,161.167 96.8333,160.833 96.5,160.5C 101.565,156.774 106.899,153.441 112.5,150.5C 113.489,146.893 113.823,143.226 113.5,139.5C 112.873,134.929 113.873,130.929 116.5,127.5C 117.675,125.616 118.342,123.449 118.5,121C 118.453,118.705 117.787,116.871 116.5,115.5C 114.394,112.945 112.06,110.612 109.5,108.5C 106.921,109.706 104.421,111.039 102,112.5C 101.503,114.81 101.337,117.143 101.5,119.5C 100.065,120.79 99.0652,122.456 98.5,124.5C 97.5108,120.893 97.1774,117.226 97.5,113.5C 98.5,113.5 99.5,113.5 100.5,113.5C 100.5,112.5 100.5,111.5 100.5,110.5C 102.981,110.226 104.647,108.893 105.5,106.5C 108.602,106.154 111.435,106.821 114,108.5C 115.359,107.635 116.526,106.635 117.5,105.5 Z M 119.5,126.5 C 122.001,126.511 122.168,127.178 120,128.5C 119.536,127.906 119.369,127.239 119.5,126.5 Z M 119.5,114.5 C 120.848,115.527 121.348,116.86 121,118.5C 119.812,117.437 119.312,116.103 119.5,114.5 Z"/></g>
<g><path style="opacity:1" fill="#5f3616" d="M 59.5,132.5 C 61.4147,132.216 63.0813,132.549 64.5,133.5C 64.4326,134.959 64.7659,136.292 65.5,137.5C 65.0979,141.775 65.0979,145.942 65.5,150C 63.1887,150.236 61.1887,151.069 59.5,152.5C 59.5,152.167 59.5,151.833 59.5,151.5C 59.5,150.5 59.5,149.5 59.5,148.5C 59.5,143.167 59.5,137.833 59.5,132.5 Z"/></g>
<g><path style="opacity:1" fill="#9b622e" d="M 60.5,133.5 C 61.8048,135.397 62.4714,137.731 62.5,140.5C 62.5653,143.625 62.0653,146.625 61,149.5C 60.5006,144.177 60.334,138.844 60.5,133.5 Z"/></g>
<g><path style="opacity:1" fill="#563b22" d="M 117.5,133.5 C 116.438,135.234 116.438,136.901 117.5,138.5C 117.5,143.833 117.5,149.167 117.5,154.5C 109.868,157.649 102.534,161.316 95.5,165.5C 94.4249,163.144 94.4249,160.811 95.5,158.5C 99.8376,154.66 104.838,151.827 110.5,150C 111.38,148.644 111.714,147.144 111.5,145.5C 111.5,145.167 111.5,144.833 111.5,144.5C 112.167,142.833 112.833,141.167 113.5,139.5C 113.823,143.226 113.489,146.893 112.5,150.5C 106.899,153.441 101.565,156.774 96.5,160.5C 96.8333,160.833 97.1667,161.167 97.5,161.5C 103.13,158.102 108.963,155.102 115,152.5C 115.333,146.5 115.667,140.5 116,134.5C 116.383,133.944 116.883,133.611 117.5,133.5 Z"/></g>
<g><path style="opacity:1" fill="#826d52" d="M 59.5,151.5 C 59.5,151.833 59.5,152.167 59.5,152.5C 57.4449,153.948 55.2782,155.281 53,156.5C 51.5018,160.766 52.6685,163.766 56.5,165.5C 55.0057,166.399 53.5057,166.065 52,164.5C 51.8138,161.964 51.3138,159.631 50.5,157.5C 52.9754,154.759 55.9754,152.759 59.5,151.5 Z"/></g>
<g><path style="opacity:0.761" fill="#21140a" d="M 59.5,148.5 C 59.5,149.5 59.5,150.5 59.5,151.5C 55.9754,152.759 52.9754,154.759 50.5,157.5C 50.7989,159.604 50.4656,161.604 49.5,163.5C 48.7113,160.354 48.0446,157.187 47.5,154C 47.9304,152.566 48.7638,151.399 50,150.5C 50.6667,151.833 51.6667,152.833 53,153.5C 54.1116,150.521 56.2783,148.854 59.5,148.5 Z"/></g>
<g><path style="opacity:1" fill="#21160c" d="M 81.5,133.5 C 81.5,135.167 81.5,136.833 81.5,138.5C 81.5,142.167 81.5,145.833 81.5,149.5C 86.0168,150.765 90.0168,153.098 93.5,156.5C 97.9468,152.436 102.947,149.102 108.5,146.5C 109.298,144.922 109.798,143.256 110,141.5C 110.21,143.058 110.71,144.391 111.5,145.5C 111.714,147.144 111.38,148.644 110.5,150C 104.838,151.827 99.8376,154.66 95.5,158.5C 94.4249,160.811 94.4249,163.144 95.5,165.5C 91.8788,167.131 88.8788,169.465 86.5,172.5C 85.7494,171.427 84.7494,171.26 83.5,172C 79.9054,173.713 76.4054,175.547 73,177.5C 70.7735,176.637 68.6068,175.637 66.5,174.5C 65.537,174.97 65.537,175.637 66.5,176.5C 63.2957,175.617 60.6291,173.95 58.5,171.5C 59.1614,170.282 59.8281,168.949 60.5,167.5C 66.4571,166.579 68.6238,163.246 67,157.5C 66.0853,158.328 65.4186,159.328 65,160.5C 64.2411,158.365 62.7411,157.032 60.5,156.5C 58.4317,159.275 57.0984,162.275 56.5,165.5C 52.6685,163.766 51.5018,160.766 53,156.5C 55.2782,155.281 57.4449,153.948 59.5,152.5C 61.1887,151.069 63.1887,150.236 65.5,150C 65.0979,145.942 65.0979,141.775 65.5,137.5C 70.5997,136.531 71.5997,134.198 68.5,130.5C 68.9623,129.12 69.9623,128.453 71.5,128.5C 74.8272,130.156 78.1605,131.823 81.5,133.5 Z"/></g>
<g><path style="opacity:1" fill="#3c2817" d="M 75.5,157.5 C 77.0812,163.119 80.7479,164.786 86.5,162.5C 86.1667,161.833 85.8333,161.167 85.5,160.5C 87.7067,159.365 90.0401,158.699 92.5,158.5C 92.7989,160.604 92.4656,162.604 91.5,164.5C 85.8662,168.297 80.3662,168.297 75,164.5C 75.2068,162.249 75.3735,159.915 75.5,157.5 Z"/></g>
<g><path style="opacity:0.557" fill="#564330" d="M 86.5,172.5 C 81.7773,175.28 76.944,177.947 72,180.5C 69.833,179.512 67.9997,178.179 66.5,176.5C 65.537,175.637 65.537,174.97 66.5,174.5C 68.6068,175.637 70.7735,176.637 73,177.5C 76.4054,175.547 79.9054,173.713 83.5,172C 84.7494,171.26 85.7494,171.427 86.5,172.5 Z"/></g>
</svg>
